<?xml version="1.0" encoding="UTF-8" standalone="no"?>
<!DOCTYPE svg PUBLIC "-//W3C//DTD SVG 1.1//EN" "http://www.w3.org/Graphics/SVG/1.1/DTD/svg11.dtd">
<svg width="100%" height="100%" viewBox="0 0 20 20" version="1.1" xmlns="http://www.w3.org/2000/svg" xmlns:xlink="http://www.w3.org/1999/xlink" xml:space="preserve" xmlns:serif="http://www.serif.com/" style="fill-rule:evenodd;clip-rule:evenodd;stroke-linejoin:round;stroke-miterlimit:2;">
    <g transform="matrix(1,0,0,1,-2,-2)">
        <path d="M2,11L7,11L7,13L2,13L2,11ZM17,11L22,11L22,13L17,13L17,11ZM11,17L13,17L13,22L11,22L11,17ZM11,2L13,2L13,7L11,7L11,2Z" style="fill:white;fill-rule:nonzero;"/>
        <g transform="matrix(0.707094,-0.707119,0.707119,0.707094,-2.77399,6.69717)">
            <rect x="5.697" y="4.197" width="2" height="5" style="fill:white;fill-rule:nonzero;"/>
        </g>
        <g transform="matrix(-0.707094,0.707119,-0.707119,-0.707094,41.7731,17.3026)">
            <rect x="16.303" y="14.803" width="2" height="5" style="fill:white;fill-rule:nonzero;"/>
        </g>
        <g transform="matrix(0.707094,0.707119,-0.707119,0.707094,14.1969,0.332568)">
            <rect x="5.697" y="14.803" width="2" height="5" style="fill:white;fill-rule:nonzero;"/>
        </g>
        <g transform="matrix(0.707206,-0.707008,0.707008,0.707206,0.33139,14.1942)">
            <rect x="14.803" y="5.697" width="5" height="2" style="fill:white;fill-rule:nonzero;"/>
        </g>
    </g>
</svg>
